<svg id="Calque_1" data-name="Calque 1" xmlns="http://www.w3.org/2000/svg" viewBox="0 0 139 139"><defs><style>.cls-1{fill:#fff;}.cls-2{fill:#6c0;}</style></defs><title>logo-stk</title><path class="cls-1" d="M682.62,315a69.5,69.5,0,1,0,69.5,69.5A69.5,69.5,0,0,0,682.62,315ZM683,433.71a49.59,49.59,0,1,1,49.59-49.59A49.59,49.59,0,0,1,683,433.71Z" transform="translate(-613.12 -315)"/><path class="cls-2" d="M682.62,315a69.5,69.5,0,1,0,0,139H683V433.71A49.59,49.59,0,1,1,723.16,355l13.77-13.76.09,0A69.37,69.37,0,0,0,682.62,315Z" transform="translate(-613.12 -315)"/></svg>